Coordinates
version=1
nRows=5
nColumns=38
inDegrees=no

Units are S.I. units (second, meters, Newtons, ...)
If the header above contains a line with 'inDegrees', this indicates whether rotational values are in degrees (yes) or radians (no).

endheader
time	pelvis_tilt	pelvis_list	pelvis_rotation	pelvis_tx	pelvis_ty	pelvis_tz	hip_flexion_r	hip_adduction_r	hip_rotation_r	knee_angle_r	ankle_angle_r	subtalar_angle_r	mtp_angle_r	hip_flexion_l	hip_adduction_l	hip_rotation_l	knee_angle_l	ankle_angle_l	subtalar_angle_l	mtp_angle_l	lumbar_extension	lumbar_bending	lumbar_rotation	arm_flex_r	arm_add_r	arm_rot_r	elbow_flex_r	pro_sup_r	wrist_flex_r	wrist_dev_r	arm_flex_l	arm_add_l	arm_rot_l	elbow_flex_l	pro_sup_l	wrist_flex_l	wrist_dev_l
20	2.97148	1.35172	-1.29167	0.695332	-0.181642	0.949727	-0.281424	0.0233316	-0.0573513	0.244987	-0.194667	0	0	-0.232616	-0.13199	-0.0524261	0.336589	-0.136826	0	0	-0.242316	0.0736698	-0.0249576	0.0796911	-0.323378	0.428177	0.694392	1.54263	0	0	0.147249	-0.272866	0.643835	0.669674	1.5708	0	0
20.01	2.97011	1.35163	-1.29071	0.69536	-0.181726	0.949735	-0.281193	0.0237427	-0.0559761	0.245708	-0.193932	0	0	-0.232647	-0.132198	-0.05254	0.336546	-0.136751	0	0	-0.242528	0.0738337	-0.0244705	0.0794313	-0.323177	0.425833	0.694252	1.5448	0	0	0.148271	-0.272719	0.64364	0.669404	1.5708	0	0
20.02	2.96905	1.35171	-1.2899	0.695354	-0.181791	0.949706	-0.280708	0.0236655	-0.0562048	0.245838	-0.194644	0	0	-0.232331	-0.132381	-0.0530974	0.336939	-0.136602	0	0	-0.242416	0.0740645	-0.0246604	0.080524	-0.324977	0.430866	0.694592	1.53718	0	0	0.148291	-0.272908	0.642646	0.670271	1.5708	0	0
20.03	2.97203	1.35034	-1.29202	0.695233	-0.181739	0.949808	-0.282906	0.0231742	-0.0574239	0.244546	-0.196803	0	0	-0.23434	-0.132231	-0.0528129	0.335588	-0.137943	0	0	-0.243699	0.0737612	-0.0241202	0.0787388	-0.325477	0.428097	0.695929	1.53737	0	0	0.150146	-0.273735	0.647128	0.670823	1.5708	0	0
20.04	2.97332	1.34987	-1.29285	0.695173	-0.181672	0.949838	-0.284101	0.02295	-0.0585889	0.243487	-0.19753	0	0	-0.235257	-0.132103	-0.0520657	0.334753	-0.138261	0	0	-0.243994	0.0735776	-0.0245634	0.0784261	-0.325674	0.427801	0.696037	1.53689	0	0	0.150396	-0.274255	0.64761	0.671615	1.5708	0	0
